<svg xmlns="http://www.w3.org/2000/svg" viewBox="0 0 32 32" width="32" height="32" role="img" aria-label="Player Scout">
  <defs>
    <radialGradient id="ball-leather" cx="37%" cy="32%" r="75%">
      <stop offset="0%" stop-color="#e8402f" />
      <stop offset="42%" stop-color="#c81d1d" />
      <stop offset="82%" stop-color="#8f1414" />
      <stop offset="100%" stop-color="#6b0f0f" />
    </radialGradient>
  </defs>

  <circle cx="16" cy="16" r="14" fill="url(#ball-leather)" />
  <circle cx="16" cy="16" r="14" stroke="#5e0d0d" stroke-width="1" stroke-opacity="0.6" fill="none" />

  <ellipse cx="10.8" cy="10" rx="4.6" ry="3.1" fill="#ffffff" opacity="0.22" />

  <g fill="none" stroke="#efe6d2" stroke-linecap="round">
    <path d="M12 3.5Q7 16 12 28.5" stroke-width="0.9" opacity="0.9" />
    <path d="M15 3Q10.5 16 15 29" stroke-width="0.9" opacity="0.9" />
    <g stroke-width="1.1">
      <path d="M11.1 6L14.2 5.6" />
      <path d="M10.4 8.5L13.6 8.2" />
      <path d="M9.9 11L13.1 10.8" />
      <path d="M9.6 13.5L12.8 13.4" />
      <path d="M9.5 16L12.8 16" />
      <path d="M9.6 18.5L12.8 18.6" />
      <path d="M9.9 21L13.1 21.2" />
      <path d="M10.4 23.5L13.6 23.8" />
      <path d="M11.1 26L14.2 26.4" />
    </g>
  </g>
</svg>
